<?xml version="1.0" standalone="no"?><!DOCTYPE svg PUBLIC "-//W3C//DTD SVG 1.1//EN" "http://www.w3.org/Graphics/SVG/1.1/DTD/svg11.dtd"><svg class="icon" width="200px" height="200.00px" viewBox="0 0 1024 1024" version="1.1" xmlns="http://www.w3.org/2000/svg"><path d="M892.2 723.4s-1.8 15.5-3.8 51c-0.6 9.6-0.5 19.3-0.2 28.9 0.7 21.2-3.9 69.8-61.6 73-28.2 1.6-56.4 4.1-84.3 8.9l-21 3.7 170.9-165.5z" fill="#55C300" /><path d="M781.9 119.6c8.5 6.8 16.2 14.4 23.2 22.9 93.8 113.9 12.6 335.8-181.4 495.7s-427.4 197.3-521.2 83.4c-3.6-4.3-6.8-8.8-9.9-13.4 51.5 93.3 135.3 169.5 242.9 209.8 239.3 89.5 505.8-31.9 595.3-271.2 72.7-194.2 6.5-406.3-148.9-527.2z" fill="#55C300" /><path d="M180.3 759.9c-27.6-10.3-50.2-26.1-67.4-46.9-2.3-2.8-4.6-5.8-6.8-9-1.3-1.8-2.5-3.8-3.7-6l-0.3-0.5c-18.5-34.4-27-72.5-24.6-110.1 7.3-113.3 89.7-247.8 215-351.1C439.6 115 614.4 62 727.4 104.2c14.3 5.4 27.5 12.3 39.1 20.5 2.3 1.7 4.8 3.6 7.2 5.5 7.7 6.2 14.8 13.2 21.1 20.8 42.2 51.2 47.5 128.4 15 217.4-33.5 91.5-102.6 183.6-194.6 259.4C468 749.1 293.3 802.2 180.3 759.9z" fill="#DFF5B5" /><path d="M722.7 116.8c13.1 4.9 25.2 11.2 35.7 18.7 2.3 1.7 4.6 3.4 6.8 5.2 7.1 5.7 13.5 12.1 19.2 18.9 39.1 47.4 43.6 119.9 12.7 204.2-32.6 89.2-100.3 179.3-190.5 253.6-72.1 59.5-151.6 103-229.7 125.9-73.3 21.5-141.4 22.9-191.9 4-25.3-9.5-46.1-23.9-61.7-42.8-2.1-2.5-4.1-5.3-6.2-8.1-1-1.4-1.9-2.9-2.9-4.8l-0.2-0.3c-17.4-32.3-25.4-68-23.1-103C98 478.6 178.5 347.7 301 246.8c72.1-59.4 151.6-103 229.7-125.9 73.3-21.5 141.5-22.9 192-4.1m9.4-25.2C618 48.9 438.5 98.5 283.9 225.9 151.3 335.2 71.4 473.6 64.1 586.5 61.4 627.3 71 668 90.4 704c0.1 0.1 0.1 0.2 0.2 0.4 1.4 2.5 2.9 5 4.5 7.4 2.3 3.4 4.8 6.6 7.4 9.8 19.1 23.2 43.9 40.1 73.1 50.9 114.1 42.7 293.6-6.9 448.2-134.3 194-159.9 275.2-381.9 181.4-495.7-7-8.5-14.8-16.1-23.2-22.9-2.5-2-5.1-3.9-7.7-5.8-12.8-9.1-26.9-16.5-42.2-22.2z" fill="#CCF550" /><path d="M445 434m-23.1 0a23.1 23.1 0 1 0 46.2 0 23.1 23.1 0 1 0-46.2 0Z" fill="#E9F5C9" /><path d="M669.1 252.4c6.2-5 12.5-9.5 18.8-14 3.2-2.3 6.1-5 8.6-8.2 17.6-22.2 10-57.4-16.8-78.6-26.8-21.2-62.8-20.3-80.4 1.9-2.5 3.2-4.5 6.6-6 10.3-3 7.2-5.8 14.3-9.3 21.5L492.3 376c-5.8 12 2.1 18.2 12.4 9.8l164.4-133.4zM699.6 408.5c6.9-0.5 13.7-0.5 20.5-0.6 3.4 0 6.9-0.6 10.2-1.7 23.2-7.9 33.2-40.5 22.2-72.9s-38.7-52.2-62-44.3c-3.3 1.1-6.4 2.8-9.1 4.9-5.4 4.1-10.8 8.2-16.6 12L510.3 407.2c-9.7 6.4-6.5 15.8 5.1 15l184.2-13.7zM396.8 252.5c-2.1-4.8-4.7-9.4-7.1-13.9-1.3-2.3-2-4.8-2.2-7.4-1.4-18 25.1-34.8 59.2-37.4 34.1-2.6 62.9 9.9 64.2 27.9 0.2 2.6-0.2 5.1-1.1 7.6-1.8 4.9-3.6 9.8-4.9 14.9l-36.1 134.9c-2.3 8.5-12.2 9.3-15.8 1.2l-56.2-127.8zM616.9 534.2c4.1 3 7.9 6.4 11.8 9.8 2 1.7 4.1 2.9 6.6 3.7 16.9 5 38.4-17.5 48.1-50.3s3.9-63.4-13-68.4c-2.4-0.7-4.9-0.9-7.5-0.5-5 0.7-10.1 1.5-15.2 1.8l-136 8c-8.6 0.5-11.4 10.1-4.5 15.2l109.7 80.7zM460.4 645.6c0.5 6.1 1.6 12.1 2.5 18 0.5 3 0.5 6.1-0.1 9.1-4.2 21.1-34.9 32.7-68.4 25.9-33.5-6.8-57.2-29.3-53-50.4 0.6-3 1.8-5.8 3.4-8.4 3.2-5.1 6.5-10.2 9.3-15.6l76.3-144.4c4.8-9.1 14.6-7.1 15.5 3.1l14.5 162.7zM242.9 490.4c-5.9 1.9-11.6 4.2-17.2 6.4-2.9 1.1-5.9 1.8-9 1.9-21.7 0.5-40-26.8-40.7-61-0.8-34.2 16.2-62.3 38-62.8 3.1-0.1 6.2 0.4 9.1 1.5 5.8 2 11.5 4.1 17.5 5.7L400 424.8c10.1 2.7 10.3 12.7 0.4 15.8l-157.5 49.8zM283.8 371.2c-4.7-1.3-9.5-2.2-14.3-3.1-2.4-0.5-4.6-1.4-6.6-2.8-13.4-10-7.7-40.3 12.8-67.7 20.4-27.4 47.9-41.5 61.2-31.6 1.9 1.4 3.4 3.3 4.6 5.5 2.3 4.3 4.4 8.7 7.1 12.8l69.9 109.8c4.4 6.9-1.6 14.9-9.5 12.7l-125.2-35.6zM257.9 652.3c-6 6.7-11.4 13.4-16.8 20.1-2.8 3.4-6 6.5-9.7 9.3-25.6 19.1-62.9 12.4-83.4-14.9-20.5-27.4-16.3-65.1 9.3-84.2 3.7-2.7 7.6-4.9 11.6-6.6 8-3.3 16-6.6 24.1-10.4l214.3-102.4c13.5-6.5 19.5 1.5 9.5 12.7L257.9 652.3zM500 602.3c0.8 4.4 1.2 9 1.6 13.5 0.2 2.3 0.9 4.4 2.1 6.2 8.3 12.7 38.3 7.9 66.9-10.8 28.6-18.7 45.1-44.2 36.8-56.9-1.2-1.8-2.8-3.3-4.8-4.4-4-2.2-8-4.3-11.7-6.9l-99.3-67.5c-6.3-4.3-14.6 1.2-13.2 8.7L500 602.3z" fill="#C4E860" /></svg>